<svg width="180" height="75" viewBox="0 0 180 75" fill="none" xmlns="http://www.w3.org/2000/svg">
<path d="M31.514 64.444C30.4679 64.2004 29.4048 64.0359 28.334 63.952C27.339 63.871 26.312 63.584 25.251 63.093C24.854 62.93 24.356 62.479 23.76 61.743C23.23 61.007 22.865 60.433 22.666 60.025C22.2835 59.3254 21.9835 58.5838 21.772 57.815C21.6378 57.0453 21.6042 56.2614 21.672 55.483C21.739 55.237 21.772 54.91 21.772 54.501C21.772 53.273 22.07 52.005 22.667 50.696C23.2231 49.4797 23.7532 48.2518 24.257 47.013L24.555 46.645C25.218 45.008 26.113 43.167 27.239 41.121C28.211 39.3491 29.2054 37.5896 30.222 35.843C30.8091 34.7944 31.4393 33.7705 32.111 32.774C32.8298 31.8086 33.462 30.7816 34 29.705L35.59 26.514L36.286 25.409L36.486 25.041V24.918L36.585 24.795C37.5887 22.8111 38.55 20.806 39.468 18.781C40.462 16.735 41.058 14.525 41.257 12.152L41.456 11.416L41.655 10.679V10.189C41.655 9.697 41.621 9.165 41.555 8.592C41.489 8.02 41.489 7.61 41.555 7.365L41.257 5.769C40.793 5.36 40.561 5.033 40.561 4.787C40.627 4.46 40.263 4.051 39.468 3.56L39.07 3.069C39.004 3.314 38.838 3.437 38.573 3.437C38.043 3.437 37.711 3.151 37.579 2.577L36.883 2.7C36.816 2.455 36.419 2.25 35.69 2.087C35.027 1.923 34.63 1.882 34.497 1.964L34.199 1.596H33.403C33.138 1.514 32.906 1.514 32.707 1.596C32.508 1.759 32.343 1.8 32.21 1.718C32.078 1.637 31.879 1.596 31.614 1.596C31.414 1.596 31.216 1.636 31.017 1.718C30.7888 1.81039 30.5566 1.89248 30.321 1.964L29.725 2.332C29.128 2.496 28.399 2.619 27.538 2.7C26.742 2.7 26.08 2.905 25.549 3.314L25.45 3.069L23.064 3.928L22.368 4.051C21.904 4.541 21.672 4.869 21.672 5.033C21.672 5.36 21.904 5.565 22.368 5.646C22.832 5.646 22.865 5.81 22.468 6.137C21.9429 6.46233 21.3737 6.71053 20.778 6.874C20.181 7.038 19.618 7.324 19.088 7.734L18.292 8.47C18.093 8.633 17.795 8.674 17.397 8.592L17.099 8.838L15.807 10.066C15.21 9.984 14.514 10.229 13.719 10.802C13.0485 11.2823 12.3857 11.7734 11.731 12.275L11.631 12.03C11.499 12.111 11.333 12.275 11.134 12.52C11.002 12.766 10.869 12.97 10.737 13.134L7.357 15.589L7.058 15.466L6.661 16.448L6.461 16.326C5.87383 16.9081 5.27742 17.4809 4.672 18.044C4.209 18.535 3.745 19.272 3.281 20.254L3.381 21.727C3.645 21.89 3.877 22.013 4.076 22.095L4.871 22.34L5.071 22.095C6.594 22.259 8.019 22.135 9.345 21.727L9.445 21.849L10.14 21.359L10.24 21.604L12.824 20.622L12.924 20.745C13.255 20.417 13.52 20.254 13.719 20.254C13.984 20.254 13.752 20.622 13.023 21.358C12.294 22.095 11.499 22.381 10.637 22.218L10.339 22.831H9.544C9.61 22.586 9.511 22.586 9.246 22.831L8.947 23.2C8.22973 23.4789 7.49995 23.7245 6.76 23.936C6.14422 24.1024 5.50885 24.1851 4.871 24.182C4.606 24.182 4.275 24.141 3.877 24.059C3.51896 23.9741 3.15196 23.9328 2.784 23.936H2.684C2.552 23.936 2.386 23.977 2.187 24.059C2.055 24.141 1.889 24.141 1.69 24.059C0.563 23.322 0 22.34 0 21.113C0 19.722 0.43 18.29 1.292 16.817C2.154 15.344 3.082 14.117 4.076 13.134C5.07 12.152 5.766 11.702 6.164 11.784L6.264 11.293L7.158 10.802L7.555 10.188L7.655 10.434L9.544 8.47L9.644 8.592L11.632 7.242L11.731 7.488L12.129 6.997C12.327 6.833 12.394 6.956 12.327 7.365L13.023 6.505L13.123 6.628C13.852 5.728 14.382 5.278 14.713 5.278C15.111 5.278 15.741 5.074 16.603 4.664C17.2823 4.32743 17.9454 3.95902 18.59 3.56C19.32 3.069 20.015 2.782 20.678 2.7C21.076 2.537 21.408 2.414 21.672 2.332C21.937 2.25 22.236 2.128 22.567 1.964L22.667 2.209C22.865 2.046 23.23 1.841 23.76 1.596C24.356 1.35 24.92 1.146 25.45 0.982C26.047 0.736 26.411 0.696 26.544 0.859C26.676 1.105 26.809 1.227 26.941 1.227C27.206 1.227 27.438 1.105 27.637 0.859C27.902 0.614 28.134 0.45 28.333 0.369C28.6253 0.291936 28.9258 0.250304 29.228 0.245C29.559 0.164 29.858 0.164 30.122 0.245C30.189 0.245 30.322 0.205 30.52 0.123C30.653 0.041 30.885 0 31.216 0C31.68 0 32.21 0.082 32.806 0.245C33.403 0.409 33.834 0.491 34.099 0.491H34.298C34.497 0.491 34.728 0.451 34.994 0.368C35.325 0.205 35.524 0.164 35.59 0.245C35.988 0.491 36.419 0.695 36.883 0.859C37.347 0.941 37.777 1.105 38.175 1.35C38.507 1.678 38.871 1.8 39.269 1.718C39.733 1.637 39.998 1.637 40.064 1.718C41.191 2.7 42.152 3.437 42.947 3.928C43.809 4.419 44.504 5.565 45.035 7.365C45.432 8.592 45.631 9.82 45.631 11.047C45.631 11.62 45.565 12.193 45.432 12.766C45.3586 13.3836 45.2592 13.9978 45.134 14.607L44.538 16.571C44.3969 17.1828 44.2642 17.7965 44.14 18.412C44.074 18.74 43.742 19.558 43.146 20.867C42.616 22.177 42.052 23.487 41.456 24.795C40.859 26.023 40.428 26.8 40.163 27.128C39.6511 27.8543 39.1544 28.5911 38.673 29.338C38.2161 30.1421 37.7849 30.9605 37.38 31.792C36.8012 32.8253 36.2044 33.8485 35.59 34.861C34.994 35.761 34.364 36.743 33.701 37.807C32.9455 38.9994 32.249 40.2282 31.614 41.489L29.625 45.417C29.493 45.745 29.36 46.113 29.228 46.522C29.161 46.849 28.996 47.177 28.731 47.504H28.631C28.499 47.504 28.333 47.668 28.134 47.995C28.002 48.241 27.902 48.445 27.836 48.609C27.902 48.936 27.77 49.549 27.438 50.45C27.173 51.35 26.875 52.291 26.544 53.273C26.212 54.173 25.98 54.787 25.848 55.115C25.648 55.605 25.549 55.933 25.549 56.097C25.616 56.26 25.616 56.547 25.549 56.956C25.483 58.674 25.98 59.902 27.041 60.638C28.167 61.457 29.294 62.07 30.421 62.48C30.686 62.561 30.918 62.602 31.117 62.602C31.382 62.684 31.647 62.725 31.912 62.725C32.972 62.725 34.032 62.52 35.093 62.111C36.153 61.702 37.048 61.293 37.777 60.884C38.573 60.556 39.037 60.434 39.169 60.516L39.468 60.025C39.798 60.025 40.064 59.943 40.263 59.779C40.5113 59.6231 40.7785 59.4995 41.058 59.411C41.1158 59.3339 41.1909 59.2715 41.2772 59.2288C41.3635 59.1861 41.4587 59.1642 41.555 59.165H41.754L42.45 58.675L42.35 58.552C42.35 58.388 42.516 58.265 42.848 58.183C43.179 58.02 43.378 57.938 43.444 57.938V57.692L44.438 56.956C44.504 56.874 44.571 56.874 44.637 56.956C44.703 56.956 44.77 56.915 44.836 56.833C45.167 56.669 45.432 56.383 45.631 55.973C45.83 55.565 46.095 55.319 46.426 55.237C47.156 54.828 48.017 54.092 49.011 53.027C50.0638 51.8909 51.0594 50.7031 51.994 49.468C52.988 48.241 53.75 47.258 54.28 46.522C54.48 46.277 54.645 45.99 54.777 45.662C54.977 45.336 55.175 45.09 55.374 44.926L61.438 37.193L62.034 36.457C62.234 36.129 62.366 35.802 62.432 35.475L63.128 34.615C63.592 33.961 64.089 33.306 64.619 32.651C65.149 31.915 65.481 31.424 65.614 31.178L66.21 29.705C66.475 28.969 66.608 28.437 66.608 28.11C66.608 27.946 66.508 27.782 66.309 27.619C66.1112 27.3765 66.0057 27.0719 66.011 26.759C66.011 26.187 65.945 25.655 65.812 25.164C65.68 24.591 65.614 24.1 65.614 23.691C65.68 23.036 65.845 22.299 66.11 21.481C66.376 20.663 66.74 20.09 67.204 19.763C67.469 19.599 67.668 19.517 67.801 19.517L68.099 19.64C68.231 19.476 68.264 19.313 68.199 19.149C68.199 18.985 68.231 18.822 68.298 18.658V18.412L68.198 17.922C68.132 17.594 68.098 16.98 68.098 16.08V13.38C68.098 12.48 68.066 11.988 67.999 11.907V11.293C68.132 11.375 68.265 11.333 68.397 11.17C68.596 11.007 68.728 10.925 68.795 10.925C68.993 10.925 69.093 11.088 69.093 11.415C69.225 11.743 69.259 12.07 69.193 12.398C69.126 12.725 69.093 13.052 69.093 13.38C69.093 13.707 69.193 14.034 69.391 14.362C69.59 14.607 69.723 14.894 69.789 15.221C69.855 15.385 69.855 15.631 69.789 15.957C69.789 16.203 69.822 16.407 69.889 16.571C69.955 16.735 70.054 16.898 70.186 17.062C70.319 17.226 70.418 17.39 70.485 17.553V17.676C70.485 17.84 70.418 18.126 70.285 18.536C70.153 18.944 70.12 19.313 70.186 19.64C70.386 21.931 70.882 24.263 71.678 26.637C71.81 26.882 71.943 27.087 72.075 27.25C72.275 27.414 72.407 27.619 72.473 27.864V28.232C72.4245 28.3638 72.3575 28.4881 72.274 28.601V28.969C72.274 29.787 72.374 30.483 72.573 31.056C72.838 31.546 73.103 32.079 73.368 32.651V32.897C73.368 33.797 73.468 34.615 73.666 35.352C73.9417 36.1125 74.274 36.8512 74.66 37.562C74.726 37.643 74.726 37.848 74.66 38.175C74.66 38.421 74.693 38.625 74.76 38.789C74.892 39.116 75.058 39.403 75.257 39.649C75.455 39.894 75.588 40.139 75.654 40.385C75.854 40.794 75.953 41.244 75.953 41.735C76.019 42.225 76.118 42.675 76.251 43.085C76.383 43.412 76.582 43.699 76.847 43.945C77.112 44.108 77.311 44.353 77.444 44.681C77.841 45.499 78.239 46.481 78.637 47.627C79.101 48.691 79.565 49.55 80.028 50.205V50.327C80.028 50.655 80.161 50.982 80.426 51.309C80.691 51.555 80.923 51.841 81.122 52.169C81.188 52.332 81.222 52.578 81.222 52.905C81.288 53.232 81.387 53.396 81.52 53.396H81.62C81.62 53.314 81.685 53.273 81.818 53.273L82.912 54.378C82.9754 54.4155 83.0274 54.4696 83.0623 54.5344C83.0972 54.5993 83.1137 54.6724 83.11 54.746C83.1135 54.8372 83.1489 54.9242 83.21 54.992C83.3609 55.0787 83.5331 55.1213 83.707 55.115C83.906 55.115 84.038 55.278 84.105 55.605C84.171 55.769 84.37 56.097 84.701 56.588C85.032 57.078 85.231 57.365 85.298 57.447C85.364 57.529 85.43 57.57 85.496 57.57C85.563 57.488 85.629 57.488 85.696 57.57C86.159 57.815 86.556 58.224 86.888 58.797C87.219 59.37 87.618 59.657 88.081 59.657H88.181C88.446 59.657 88.678 59.575 88.876 59.411C89.076 59.247 89.274 59.165 89.473 59.165C89.606 59.247 89.639 59.329 89.573 59.411H89.771C89.904 59.411 89.937 59.37 89.871 59.288C89.804 59.124 89.837 59.084 89.97 59.165C90.103 59.165 90.202 59.247 90.268 59.411L90.666 59.656C90.997 59.656 91.229 59.533 91.362 59.288C91.561 58.961 91.726 58.674 91.859 58.428C91.991 58.265 92.124 58.224 92.257 58.306C92.4309 58.3123 92.6031 58.2696 92.754 58.183C92.952 57.938 93.118 57.693 93.251 57.447C93.449 57.201 93.681 57.037 93.946 56.956C94.146 56.792 94.311 56.588 94.444 56.342C94.642 55.932 94.775 55.482 94.841 54.992C94.908 54.501 94.974 54.092 95.041 53.764C95.371 53.764 95.571 53.642 95.637 53.396C95.968 52.496 96.233 51.514 96.432 50.45L96.532 49.96C96.532 49.795 96.498 49.673 96.432 49.59V48.977C96.432 48.567 96.465 48.159 96.532 47.75C96.598 47.259 96.664 46.85 96.73 46.522C96.863 46.686 96.929 46.604 96.929 46.277L97.327 40.876C97.327 40.712 97.293 40.63 97.227 40.63C97.1661 40.5625 97.1308 40.4758 97.127 40.385C97.061 39.239 96.929 38.339 96.73 37.685C96.531 36.948 96.366 36.047 96.233 34.984C96.1666 34.7428 96.1666 34.4882 96.233 34.247C96.299 34.002 96.299 33.797 96.233 33.633C96.167 32.815 96.034 32.324 95.835 32.16C95.6842 31.9682 95.5514 31.763 95.438 31.547C95.371 31.301 95.338 30.769 95.338 29.951C95.338 29.787 95.272 29.583 95.14 29.337C95.0532 29.1662 94.9532 29.0023 94.841 28.847L94.543 29.214C94.2838 28.5792 94.0839 27.9217 93.946 27.25C93.8163 26.6028 93.5815 25.9813 93.251 25.41C93.184 25.327 93.151 25.082 93.151 24.673C93.218 24.263 93.251 24.018 93.251 23.936C93.1932 23.8591 93.118 23.7968 93.0317 23.7542C92.9454 23.7117 92.8502 23.69 92.754 23.691C92.6017 23.591 92.4672 23.4663 92.356 23.322C92.29 22.913 92.157 22.668 91.958 22.586C91.826 22.504 91.66 22.299 91.461 21.972C91.395 21.89 91.361 21.768 91.361 21.604C91.3937 21.4807 91.4018 21.3521 91.3848 21.2256C91.3679 21.0992 91.3261 20.9773 91.262 20.867C91.196 20.786 91.064 20.745 90.865 20.745C90.732 20.745 90.633 20.663 90.567 20.499C90.5 20.254 90.301 19.926 89.97 19.517C89.705 19.108 89.407 18.903 89.075 18.903C88.9382 18.9903 88.8335 19.1199 88.777 19.272C88.711 19.435 88.644 19.517 88.578 19.517C88.3241 19.4412 88.0876 19.3162 87.882 19.149C87.75 18.903 87.551 18.781 87.286 18.781C87.1445 18.7834 87.0065 18.8257 86.888 18.903C86.822 18.985 86.722 19.026 86.59 19.026C86.524 19.026 86.49 18.903 86.49 18.658C86.557 18.412 86.524 18.29 86.391 18.29H86.291C86.159 18.29 85.993 18.33 85.795 18.412C85.595 18.494 85.43 18.494 85.297 18.412C85.43 18.249 85.364 18.167 85.099 18.167C84.966 18.085 84.933 18.085 84.999 18.167C85.066 18.249 85.032 18.29 84.899 18.29C84.767 18.208 84.602 18.003 84.403 17.676C84.27 17.349 84.104 17.185 83.906 17.185C83.773 17.103 83.74 17.103 83.806 17.185C83.873 17.267 83.839 17.308 83.706 17.308C83.508 17.226 83.309 17.062 83.11 16.817C82.912 16.571 82.746 16.448 82.613 16.448C82.481 16.448 82.415 16.489 82.415 16.571C82.481 16.571 82.448 16.612 82.315 16.694L82.116 16.448L80.923 14.975C80.393 14.321 80.128 13.748 80.128 13.257C80.194 12.766 80.36 12.234 80.625 11.661C80.89 11.088 81.255 10.843 81.719 10.925C81.851 11.007 81.984 11.129 82.116 11.293L82.514 11.539H82.812C82.945 11.702 83.077 11.948 83.21 12.275C83.409 12.602 83.574 12.807 83.707 12.889C83.707 12.971 83.74 12.929 83.807 12.766C83.939 12.602 84.038 12.521 84.104 12.521C84.237 12.521 84.304 12.561 84.304 12.643L84.403 12.766C84.602 12.766 84.8 12.643 84.999 12.398C85.199 12.07 85.364 11.866 85.496 11.784C85.629 11.784 85.662 11.866 85.596 12.029C85.5995 12.1202 85.6349 12.2072 85.696 12.275L86.59 12.03L86.789 12.398C86.987 12.48 87.186 12.643 87.385 12.888C87.584 13.052 87.75 13.134 87.882 13.134L88.082 13.257C88.147 13.175 88.214 13.134 88.28 13.134C88.412 13.134 88.744 13.298 89.274 13.625C89.804 13.953 90.103 14.157 90.169 14.239C90.301 14.321 90.368 14.403 90.368 14.484C90.368 14.566 90.401 14.648 90.467 14.73L90.666 14.485L90.865 14.853L91.163 14.607L92.058 16.694H92.455C92.655 16.612 92.787 16.612 92.853 16.694C92.919 16.694 92.953 16.776 92.953 16.939C93.019 17.103 93.085 17.226 93.151 17.308C93.284 17.39 93.615 17.553 94.145 17.798C94.675 18.044 94.974 18.167 95.04 18.167C95.173 18.167 95.206 18.126 95.14 18.044C95.14 17.962 95.206 17.921 95.338 17.921C95.471 17.921 95.57 18.003 95.637 18.167C95.703 18.331 95.802 18.412 95.935 18.412H96.035C95.968 18.331 96.001 18.29 96.134 18.29C96.266 18.29 96.332 18.33 96.332 18.412C96.332 18.494 96.366 18.617 96.432 18.781C96.432 18.617 96.564 18.494 96.83 18.412C97.16 18.331 97.36 18.331 97.426 18.412C97.559 18.494 97.824 18.74 98.221 19.149C98.685 19.476 98.851 19.722 98.718 19.885C98.652 19.967 98.42 20.131 98.022 20.376C97.625 20.54 97.36 20.622 97.227 20.622C97.028 20.622 96.83 20.581 96.631 20.499C96.4421 20.419 96.2392 20.3772 96.034 20.376C95.902 20.376 95.835 20.417 95.835 20.499C95.902 20.581 95.869 20.622 95.736 20.622C95.5944 20.6193 95.4564 20.5767 95.338 20.499C95.2802 20.4221 95.205 20.3598 95.1187 20.3172C95.0324 20.2747 94.9373 20.253 94.841 20.254C94.51 20.254 94.278 20.54 94.145 21.113C94.145 21.195 94.278 21.603 94.543 22.34C94.874 23.077 95.206 23.854 95.537 24.673C95.869 25.409 96.067 25.9 96.134 26.146L96.531 27.864C96.735 28.4601 96.8686 29.0779 96.929 29.705V30.442C96.929 30.769 96.962 30.974 97.029 31.056C97.095 31.137 97.161 31.178 97.227 31.178C97.293 31.097 97.36 31.138 97.426 31.301V31.547C97.4869 31.6145 97.5222 31.7012 97.526 31.792V32.896C97.592 33.142 97.724 33.47 97.923 33.879V34.369C97.923 35.189 97.989 36.047 98.122 36.948C98.254 37.766 98.354 38.625 98.42 39.525C98.487 40.344 98.487 41.162 98.42 41.98V44.313C98.42 44.558 98.453 44.844 98.52 45.172C98.586 45.417 98.619 45.622 98.619 45.786C98.619 46.031 98.586 46.236 98.519 46.399C98.4545 46.5547 98.4209 46.7215 98.42 46.89C98.3501 47.2541 98.3166 47.6243 98.32 47.995V48.977C98.254 49.387 98.122 50.123 97.923 51.187C97.724 52.169 97.559 52.864 97.426 53.273C97.36 53.355 97.26 53.396 97.128 53.396C97.061 53.396 97.028 53.478 97.028 53.642C96.8214 54.2435 96.6554 54.8582 96.531 55.482C96.386 56.0868 96.1514 56.6665 95.835 57.202C95.438 58.02 94.941 58.674 94.345 59.165C93.814 59.575 93.317 60.106 92.853 60.761C92.323 60.761 91.859 61.006 91.461 61.497C91.064 62.07 90.6 62.357 90.069 62.357C89.804 62.357 89.639 62.316 89.572 62.234C89.506 62.152 89.34 62.234 89.075 62.479L88.876 62.111C88.545 62.521 88.28 62.725 88.081 62.725C87.882 62.725 87.683 62.685 87.485 62.602C87.2965 62.4968 87.0961 62.4145 86.888 62.357L86.49 61.866L86.093 62.111C85.629 61.702 85.132 61.252 84.602 60.761C84.072 60.351 83.542 59.984 83.011 59.656L82.216 59.411C82.035 59.1761 81.869 58.9299 81.719 58.674C81.519 58.347 81.354 58.184 81.222 58.184C81.155 58.102 81.089 58.102 81.022 58.184C81.022 58.265 80.956 58.265 80.824 58.184C80.758 58.184 80.592 58.102 80.327 57.938C80.062 57.692 79.863 57.528 79.73 57.447C79.73 57.283 79.697 57.16 79.63 57.079C79.565 56.915 79.399 56.751 79.134 56.588C78.935 56.342 78.769 56.178 78.637 56.097C78.372 55.769 78.107 55.401 77.841 54.992C77.576 54.501 77.278 54.132 76.947 53.887C76.947 53.56 76.914 53.355 76.847 53.273C75.986 52.046 75.357 51.227 74.958 50.818C74.627 50.328 74.097 49.304 73.368 47.75C73.229 47.4099 73.0628 47.0815 72.871 46.768C72.749 46.4583 72.5814 46.1684 72.374 45.908C72.1822 45.5946 72.016 45.2662 71.877 44.926C71.6177 44.2912 71.4179 43.6337 71.28 42.962C71.1539 42.248 70.9541 41.5489 70.684 40.876C70.4954 40.4049 70.2624 39.9529 69.988 39.526C69.7326 39.0594 69.5323 38.5648 69.391 38.052C69.3337 37.7636 69.2673 37.4772 69.192 37.193C69.1098 36.9007 69.0103 36.6135 68.894 36.333L68.099 34.738C67.966 34.329 67.834 33.878 67.701 33.388C67.5783 32.8537 67.4459 32.3216 67.304 31.792L64.818 34.984C64.1736 35.7767 63.5108 36.5543 62.83 37.316C62.1208 38.0237 61.5479 38.8559 61.14 39.771C60.5945 40.7657 59.9624 41.7103 59.251 42.594C57.991 44.394 56.368 46.481 54.38 48.854C52.4757 51.2074 50.4514 53.4611 48.315 55.606C46.261 57.651 44.372 59.288 42.649 60.516C42.3717 60.6846 42.0697 60.8088 41.754 60.884C41.489 61.047 41.191 61.252 40.859 61.498C40.727 61.661 40.594 61.702 40.462 61.62L39.567 62.111C39.567 61.948 39.368 61.989 38.97 62.234C38.639 62.479 38.407 62.644 38.275 62.725L37.678 62.97L37.578 62.848L36.485 63.462L36.385 63.339C36.253 63.339 36.087 63.298 35.889 63.216C35.756 63.216 35.623 63.298 35.491 63.461V63.584C35.3358 63.7424 35.15 63.8676 34.9449 63.952C34.7398 64.0364 34.5197 64.0782 34.298 64.075C33.834 64.075 33.436 64.157 33.105 64.321L34 63.093L31.514 64.443V64.444ZM141.411 38.298C140.947 38.298 140.582 38.216 140.317 38.052L139.422 37.562C139.422 37.48 139.721 37.193 140.317 36.702C140.781 36.375 141.311 36.252 141.908 36.334C142.57 36.416 143.034 36.416 143.3 36.334C144.89 35.924 146.812 35.352 149.066 34.615C151.319 33.879 153.937 32.405 156.919 30.196L160.796 27.373C161.128 27.128 161.36 27.169 161.492 27.496C161.36 27.578 161.294 27.782 161.294 28.11C161.757 28.11 162.023 27.905 162.089 27.496C162.221 27.005 162.354 26.555 162.487 26.146H162.586L164.773 24.427C165.104 24.345 165.403 24.387 165.668 24.55C165.999 24.714 166.297 24.673 166.563 24.427C166.43 24.1 166.297 23.895 166.165 23.813C166.032 23.65 166.099 23.445 166.364 23.2L166.761 22.831C167.292 22.422 167.755 22.136 168.153 21.972C168.617 21.727 168.948 21.277 169.147 20.622C170.473 19.149 171.599 17.676 172.527 16.202C173.455 14.73 173.919 13.339 173.919 12.029C173.919 10.639 173.29 9.452 172.03 8.469C170.837 7.406 168.683 6.629 165.568 6.137L164.773 6.015C164.341 5.93915 163.91 5.85714 163.481 5.769C163.058 5.67717 162.654 5.51129 162.288 5.279C162.354 5.606 162.221 5.769 161.89 5.769C160.964 5.68718 160.035 5.64614 159.106 5.646C158.214 5.56599 157.318 5.52529 156.422 5.524C154.964 5.524 153.605 5.564 152.346 5.646C151.153 5.728 150.292 5.81 149.761 5.892L146.481 6.383C146.083 6.219 145.685 6.301 145.288 6.628H145.188C144.724 6.628 144.261 6.71 143.797 6.874C143.293 6.96573 142.794 7.08863 142.305 7.242C142.04 7.324 141.742 7.406 141.411 7.488C141.079 7.488 140.748 7.57 140.417 7.733L138.428 8.224C137.964 8.634 137.368 8.838 136.639 8.838H136.539L134.65 9.452H134.551C134.286 9.452 134.054 9.288 133.855 8.961C133.677 8.6107 133.544 8.23947 133.458 7.856C133.383 8.39231 133.283 8.92488 133.159 9.452C133.027 10.024 132.795 10.311 132.463 10.311L129.68 11.416C129.389 11.5015 129.088 11.5429 128.785 11.539H127.791C127.46 11.539 127.194 11.579 126.996 11.661C126.797 11.743 126.664 11.948 126.598 12.275C126.598 12.52 126.499 12.725 126.3 12.889C126.037 13.2147 125.694 13.468 125.306 13.625C124.927 13.7002 124.559 13.8239 124.212 13.993H124.113C123.98 13.993 123.781 13.912 123.516 13.748C123.317 13.584 123.152 13.543 123.019 13.625C122.953 13.707 122.886 13.912 122.82 14.239C122.754 14.566 122.654 14.771 122.522 14.853V14.975C122.124 15.139 121.693 15.344 121.23 15.589C120.766 15.835 120.335 16.08 119.937 16.326L118.545 17.185C118.081 17.43 117.684 17.595 117.352 17.675C117.22 17.675 117.154 17.512 117.154 17.185C117.22 16.858 117.187 16.775 117.054 16.939C116.656 17.185 116.259 17.635 115.861 18.289C115.464 18.944 115.099 19.394 114.768 19.639C114.436 19.967 114.072 20.131 113.674 20.131C113.343 20.131 113.011 20.295 112.68 20.621C112.481 20.867 112.282 21.277 112.083 21.849C111.951 22.34 111.785 22.709 111.586 22.954C111.056 23.609 110.526 24.386 109.996 25.286C109.921 25.4635 109.82 25.6289 109.697 25.777C109.561 25.9521 109.491 26.1695 109.499 26.391H109.399C109.002 27.373 108.803 28.314 108.803 29.214C108.803 31.014 109.333 32.324 110.393 33.142C111.537 33.969 112.815 34.5921 114.171 34.984C114.436 35.065 114.668 35.188 114.867 35.352C115.132 35.516 115.397 35.557 115.662 35.475C115.927 35.311 116.159 35.229 116.358 35.229C116.69 35.229 116.955 35.393 117.154 35.72L118.645 36.088C119.44 36.334 119.838 36.579 119.838 36.825C119.838 36.988 119.639 37.152 119.241 37.315C118.916 37.3965 118.582 37.4382 118.247 37.439C117.054 37.439 115.596 37.152 113.873 36.579C112.157 35.9288 110.574 34.9723 109.2 33.756C107.809 32.529 107.013 30.933 106.814 28.969C106.814 28.887 106.715 28.682 106.516 28.355C106.4 28.0744 106.3 27.7873 106.218 27.495C106.021 26.7751 105.921 26.0323 105.92 25.286C105.92 23.896 106.152 22.586 106.616 21.358C107.151 20.1223 107.853 18.9658 108.703 17.921C109.035 17.512 109.333 17.226 109.598 17.062C109.929 16.898 110.294 16.653 110.692 16.326C111.089 15.998 111.288 15.712 111.288 15.466C111.288 15.221 111.487 14.935 111.885 14.607C112.415 14.198 113.144 13.707 114.072 13.134C114.84 12.6948 115.602 12.2448 116.358 11.784C116.756 11.784 117.12 11.579 117.452 11.17C118.799 10.4234 120.193 9.76732 121.627 9.206C123.07 8.55766 124.529 7.94382 126.001 7.365C126.237 7.29375 126.469 7.21167 126.697 7.119C126.886 7.03949 127.089 6.99803 127.294 6.997C127.559 6.997 127.824 7.119 128.089 7.365C128.089 7.201 128.056 7.079 127.99 6.997C127.99 6.833 128.056 6.71 128.189 6.628C129.845 5.974 131.469 5.36 133.06 4.788C134.717 4.133 136.341 3.805 137.931 3.805H138.031C138.172 3.80222 138.31 3.75958 138.428 3.682C138.585 3.61048 138.753 3.56909 138.925 3.56H139.025L139.721 3.437C140.118 3.682 140.516 3.601 140.914 3.191C142.703 2.782 144.36 2.496 145.884 2.332C147.409 2.087 148.701 1.964 149.761 1.964H150.159C150.491 1.964 150.756 1.924 150.954 1.841H151.949C152.043 1.8005 152.145 1.77961 152.247 1.77961C152.349 1.77961 152.451 1.8005 152.545 1.841H153.241C154.036 1.841 154.865 1.882 155.726 1.964H158.609C158.874 1.964 159.073 2.087 159.206 2.332C159.405 2.496 159.637 2.414 159.902 2.087C161.691 2.169 163.481 2.414 165.27 2.823C166.596 3.069 168.12 3.56 169.843 4.296C171.633 5.033 173.19 6.178 174.516 7.733C175.841 9.206 176.504 11.293 176.504 13.993C176.504 15.303 176.371 16.489 176.106 17.553C175.91 18.5292 175.503 19.4507 174.913 20.253C174.347 21.1186 173.715 21.9397 173.024 22.709C172.807 22.9819 172.608 23.2689 172.428 23.568C172.237 23.8857 172.003 24.1751 171.732 24.428C171.666 24.509 171.533 24.591 171.334 24.673C171.193 24.6755 171.055 24.7178 170.937 24.795C170.826 24.9393 170.691 25.064 170.539 25.164C170.366 25.276 170.2 25.3989 170.042 25.532C167.855 27.332 165.966 28.682 164.375 29.582C162.851 30.401 160.83 31.342 158.311 32.406C157.516 32.733 156.952 32.938 156.621 33.02C156.29 33.02 156.025 33.101 155.826 33.265C154.169 33.838 152.28 34.656 150.159 35.72C148.038 36.784 146.216 37.48 144.691 37.807C144.559 37.889 144.128 38.011 143.399 38.175C142.736 38.257 142.073 38.298 141.411 38.298V38.298ZM171.136 75H170.44C170.042 75 169.81 74.96 169.744 74.877C169.479 74.714 169.379 74.468 169.446 74.141C169.512 73.813 169.412 73.65 169.147 73.65C168.882 73.65 168.716 73.772 168.65 74.018C168.584 74.345 168.385 74.509 168.054 74.509H167.954C167.623 74.509 167.325 74.304 167.06 73.895C166.861 73.486 166.629 73.363 166.364 73.527C165.966 73.772 165.635 73.895 165.37 73.895C164.906 73.895 164.541 73.691 164.276 73.281C163.985 72.8463 163.614 72.4715 163.182 72.177C163.116 72.177 162.984 72.217 162.785 72.299C162.726 72.339 162.657 72.3604 162.586 72.3604C162.515 72.3604 162.446 72.339 162.387 72.299C162.321 72.218 161.791 71.849 160.796 71.195C159.784 70.6111 158.789 69.9971 157.814 69.354C156.82 68.699 156.223 68.29 156.025 68.126C155.826 67.553 155.627 67.226 155.428 67.144C155.296 67.062 154.997 67.021 154.533 67.021C154.187 66.7116 153.822 66.4247 153.44 66.162C153.042 65.916 152.777 65.589 152.644 65.18C151.783 64.77 151.021 64.28 150.358 63.707C149.637 63.0796 148.94 62.4244 148.27 61.743C148.138 61.5799 147.967 61.4532 147.773 61.375C147.579 61.2965 147.408 61.1699 147.276 61.007L144.592 58.552C144.459 58.061 143.962 57.529 143.101 56.956C142.239 56.301 141.643 55.687 141.311 55.115C141.25 55.047 141.215 54.96 141.212 54.869C141.212 54.459 141.046 54.255 140.715 54.255H140.118C139.919 54.255 139.82 54.092 139.82 53.765C139.621 53.191 139.124 52.537 138.329 51.8C137.563 51.0152 136.834 50.196 136.142 49.345C135.479 48.527 135.247 47.831 135.446 47.259C135.188 47.1782 134.92 47.1367 134.65 47.136C134.385 47.136 134.187 47.013 134.054 46.768C133.789 46.113 133.458 45.581 133.06 45.172C132.861 45.008 132.662 44.762 132.463 44.435L131.966 45.663C131.701 46.153 131.436 46.727 131.171 47.381C130.906 48.036 130.608 48.731 130.276 49.468L129.382 51.678C129.315 51.923 129.216 52.046 129.083 52.046C129.017 51.964 128.918 51.923 128.785 51.923C128.918 52.25 128.984 52.537 128.984 52.783C128.984 53.437 128.686 54.133 128.089 54.869C127.272 57.1939 126.477 59.5263 125.703 61.866C124.974 64.076 124.411 66.121 124.013 68.003C123.881 68.658 123.682 68.985 123.417 68.985C122.953 68.985 122.721 68.371 122.721 67.144C122.721 65.998 123.085 64.198 123.814 61.743L123.715 61.866C123.649 61.866 123.417 61.948 123.019 62.111C122.621 62.275 122.356 62.316 122.224 62.234C121.362 62.234 120.931 61.866 120.931 61.129C120.931 59.165 121.263 57.119 121.925 54.992L124.51 46.645C124.643 46.399 124.709 46.154 124.709 45.908L124.908 45.172L125.007 45.049V44.926L125.405 42.349C125.538 41.612 125.604 40.957 125.604 40.385C125.67 39.812 125.703 39.116 125.703 38.298C125.703 38.052 125.803 37.888 126.001 37.807C126.001 37.234 126.035 36.702 126.101 36.211C126.167 35.6407 126.2 35.0671 126.2 34.493V33.879C126.134 33.797 126.101 33.633 126.101 33.388C126.101 33.224 126.068 33.061 126.001 32.897V32.406V32.283C126.062 32.2156 126.097 32.1289 126.101 32.038C126.233 31.056 126.465 30.156 126.797 29.338C127.194 28.518 127.625 28.314 128.089 28.723C128.222 28.805 128.454 29.296 128.785 30.196C129.183 31.096 129.514 31.751 129.779 32.16C130.044 32.979 130.376 33.756 130.773 34.493C131.171 35.147 131.502 35.883 131.767 36.703C131.966 37.111 132.066 37.439 132.066 37.684C132.066 37.848 132.298 38.012 132.762 38.175C134.605 34.0871 136.527 30.0357 138.528 26.023C140.516 22.095 142.372 19.067 144.095 16.939L144.393 16.694L144.691 16.08C144.691 16.08 144.758 16.04 144.89 15.957C145.023 15.876 145.122 15.917 145.188 16.08C145.188 16.162 145.122 16.326 144.99 16.571C144.923 16.817 144.89 16.981 144.89 17.062C145.089 17.472 145.321 17.512 145.586 17.185C145.652 17.021 145.652 16.653 145.586 16.08C145.52 15.507 145.52 15.22 145.586 15.22C145.719 15.14 145.785 15.14 145.785 15.22C145.851 15.303 145.917 15.344 145.984 15.344C146.116 15.344 146.183 15.221 146.183 14.975C146.183 14.73 146.216 14.566 146.282 14.485C147.011 14.157 147.674 13.993 148.27 13.993C148.602 13.993 149.066 14.198 149.662 14.607C150.325 15.017 150.656 15.589 150.656 16.326C150.656 16.735 150.491 17.226 150.159 17.799C150.093 17.881 150.027 18.044 149.96 18.289C149.886 18.467 149.785 18.6328 149.662 18.781C149.596 18.863 149.53 18.903 149.463 18.903C149.463 18.822 149.397 18.822 149.264 18.903C149.198 18.985 149.099 19.026 148.966 19.026C148.9 18.944 148.8 18.903 148.668 18.903C148.535 18.903 148.502 19.026 148.568 19.272C148.701 19.517 148.734 19.681 148.668 19.762C148.602 19.844 148.535 19.844 148.469 19.762C148.403 19.681 148.303 19.722 148.171 19.885C148.105 19.967 148.138 20.049 148.27 20.131C148.469 20.131 148.502 20.213 148.37 20.376C147.906 20.9382 147.408 21.4712 146.878 21.972L145.288 23.445C145.222 23.527 145.155 23.527 145.089 23.445C145.023 23.282 144.956 23.241 144.89 23.322L144.194 24.55C143.512 25.3942 142.849 26.2537 142.206 27.128C141.476 28.1268 140.779 29.1501 140.118 30.196C139.929 30.667 139.696 31.1191 139.422 31.546C139.157 31.956 138.793 32.12 138.329 32.038C138.329 32.12 138.395 32.242 138.528 32.406C138.66 32.488 138.66 32.651 138.528 32.896C137.059 35.3721 135.699 37.9116 134.452 40.507L136.539 43.699C136.738 44.026 136.838 44.394 136.838 44.804C136.838 45.131 136.904 45.336 137.036 45.417C137.169 45.417 137.268 45.377 137.335 45.295C137.467 45.213 137.567 45.172 137.633 45.172C137.832 45.172 137.997 45.376 138.13 45.786C138.329 46.113 138.528 46.399 138.726 46.645L139.522 47.627C139.853 47.954 140.185 48.322 140.516 48.732V48.854C140.781 49.1 141.212 49.55 141.808 50.204C142.405 50.859 142.968 51.514 143.498 52.169C144.029 52.741 144.327 53.192 144.393 53.519C144.526 53.846 144.724 54.051 144.99 54.133C145.255 54.214 145.487 54.337 145.685 54.501C146.216 54.991 146.746 55.483 147.276 55.974C147.873 56.464 148.436 56.997 148.966 57.57C149.165 57.733 149.231 57.897 149.165 58.06C149.165 58.224 149.198 58.388 149.264 58.552C149.397 58.633 149.629 58.756 149.96 58.92C150.358 59.002 150.656 59.124 150.855 59.288C152.359 60.5001 153.884 61.6869 155.428 62.848C156.956 64.0783 158.549 65.2256 160.2 66.285C161.896 67.3344 163.656 68.2772 165.469 69.108C167.246 69.9237 169.18 70.3424 171.136 70.335C172.726 70.335 174.251 69.967 175.709 69.231C177.233 68.494 177.995 67.144 177.995 65.18C177.988 64.4742 177.888 63.7725 177.697 63.093C177.615 62.6296 177.482 62.1768 177.299 61.743C177.167 61.252 176.935 60.883 176.603 60.638C176.405 60.148 176.04 59.82 175.51 59.656C175.178 59.247 174.88 58.838 174.615 58.429C174.35 57.938 173.952 57.733 173.422 57.815C173.223 57.57 173.124 57.325 173.124 57.079C173.124 56.751 173.223 56.506 173.422 56.342C173.687 56.097 173.985 56.056 174.317 56.219C174.781 56.547 175.145 56.997 175.41 57.569C175.742 58.061 176.173 58.347 176.703 58.429L177.2 59.043C177.399 59.452 177.597 59.779 177.796 60.025C178.061 60.27 178.293 60.597 178.492 61.007C178.691 61.334 178.89 61.784 179.089 62.357C179.354 63.011 179.519 63.543 179.586 63.953C179.718 64.28 179.751 64.607 179.685 64.934C179.685 65.262 179.785 65.63 179.983 66.039C180.116 68.576 179.453 70.622 177.995 72.177C176.537 73.813 174.847 74.714 172.925 74.877C172.746 74.7255 172.545 74.6015 172.329 74.509C172.21 74.4315 172.073 74.3889 171.931 74.386C171.732 74.386 171.467 74.591 171.136 75V75ZM125.107 57.815C125.239 57.897 125.306 57.897 125.306 57.815L125.405 57.57C125.538 57.324 125.604 57.079 125.604 56.833C125.604 56.506 125.637 56.219 125.703 55.973C126.896 52.291 128.421 48.282 130.276 43.944C130.409 43.617 130.541 43.535 130.674 43.699C130.873 43.781 131.005 43.739 131.072 43.576C131.204 43.412 131.237 43.208 131.171 42.962V42.349C131.114 42.1969 131.01 42.0673 130.873 41.98C130.736 41.8932 130.631 41.764 130.575 41.612C130.309 40.712 129.945 40.139 129.481 39.894C129.083 39.566 128.785 39.075 128.586 38.421C128.321 37.684 128.056 37.152 127.791 36.825C127.592 36.415 127.327 35.925 126.996 35.352L126.697 39.525C126.631 40.344 126.532 41.285 126.399 42.349C126.344 43.3465 126.177 44.3347 125.902 45.295C125.836 45.54 125.803 45.908 125.803 46.399V47.749C125.803 47.913 125.769 48.118 125.703 48.363V49.1L125.504 51.555C125.433 52.4174 125.334 53.2772 125.206 54.133C125.078 54.9038 125.011 55.6836 125.007 56.465C125.007 57.119 125.04 57.57 125.107 57.815V57.815Z" fill="url(#paint0_linear_20_3)"/>
<defs>
<linearGradient id="paint0_linear_20_3" x1="0" y1="0" x2="180" y2="0" gradientUnits="userSpaceOnUse">
<stop stop-color="#00BAFF"/>
<stop offset="1" stop-color="#063EF9"/>
</linearGradient>
</defs>
</svg>
